<?xml version="1.0" encoding="utf-8"?>
<!-- Generator: Adobe Illustrator 18.0.0, SVG Export Plug-In . SVG Version: 6.00 Build 0)  -->
<!DOCTYPE svg PUBLIC "-//W3C//DTD SVG 1.1//EN" "http://www.w3.org/Graphics/SVG/1.1/DTD/svg11.dtd">
<svg version="1.1" id="图层_1" xmlns="http://www.w3.org/2000/svg" xmlns:xlink="http://www.w3.org/1999/xlink" x="0px" y="0px"
	 width="50px" height="50px" viewBox="0 0 50 50" enable-background="new 0 0 50 50" xml:space="preserve">
<g>
	<path fill="none" stroke="#00DDAA" stroke-miterlimit="10" d="M44,19.8L20.7,43.1c-1.2,1.2-3.1,1.2-4.3,0l-9.7-9.7
		c-1.2-1.2-1.2-3.1,0-4.3L30,5.8c1.2-1.2,3.1-1.2,4.3,0l9.7,9.7C45.2,16.7,45.2,18.6,44,19.8z"/>
	<path fill="none" stroke="#00DDAA" stroke-miterlimit="10" d="M36.3,7.9L36.3,7.9c0.7-0.7,1.7-0.7,2.4,0l3.2,3.2
		c0.7,0.7,0.7,1.7,0,2.4l0,0"/>
	<polyline fill="none" stroke="#00DDAA" stroke-miterlimit="10" points="29.5,15.3 20.8,24.1 21,24.5 30,24.5 21.1,33.4 	"/>
</g>
</svg>
