<?xml version="1.0" encoding="utf-8"?>
<!-- Generator: Adobe Illustrator 18.0.0, SVG Export Plug-In . SVG Version: 6.00 Build 0)  -->
<!DOCTYPE svg PUBLIC "-//W3C//DTD SVG 1.1//EN" "http://www.w3.org/Graphics/SVG/1.1/DTD/svg11.dtd">
<svg version="1.1" id="图层_1" xmlns="http://www.w3.org/2000/svg" xmlns:xlink="http://www.w3.org/1999/xlink" x="0px" y="0px"
	 width="192px" height="192px" viewBox="0 0 192 192" enable-background="new 0 0 192 192" xml:space="preserve">
<g>
	<g id="XMLID_87_">
		<g>
			<defs>
				<rect id="SVGID_1_" width="192" height="192"/>
			</defs>
			<clipPath id="SVGID_2_">
				<use xlink:href="#SVGID_1_"  overflow="visible"/>
			</clipPath>
			<rect id="XMLID_89_" x="-5" y="-5" clip-path="url(#SVGID_2_)" fill="#5CECFF" width="202" height="202"/>
		</g>
	</g>
	<g>
		<g>
			<defs>
				<polyline id="SVGID_3_" points="35.7,53.6 157,53.6 157,139.5 35.7,139.5 				"/>
			</defs>
			<clipPath id="SVGID_4_">
				<use xlink:href="#SVGID_3_"  overflow="visible"/>
			</clipPath>
			<g id="XMLID_110_" clip-path="url(#SVGID_4_)">
				<g id="XMLID_75_">
					<g>
						<defs>
							<rect id="SVGID_5_" x="35" y="53" width="122" height="87"/>
						</defs>
						<clipPath id="SVGID_6_">
							<use xlink:href="#SVGID_5_"  overflow="visible"/>
						</clipPath>
						<g id="XMLID_77_" clip-path="url(#SVGID_6_)" enable-background="new    ">
							<g id="XMLID_78_">
								<defs>
									<path id="SVGID_7_" d="M114.9,68.1c6.8-1.4,13.1-0.3,18.5,2.5c3.5,1.8,6.5,4.4,8.9,7.4s4.3,6.6,5.3,10.3
										c1.5,5.6,1.4,11.8-1.1,17.7c1.8,1,3.4,2.1,4.7,3.5c3,3,4.8,6.7,5.4,10.5c0.7,3.8,0.3,7.8-1.1,11.4
										c-1.3,3.3-2.9,5.5-5.4,7.9h-103c-3.6-2.8-6.2-5.4-8.3-9.6c-2.3-4.5-3.4-9.6-3.1-14.6c0.3-5.1,2-10.1,5.2-14.3
										c2-2.7,4.6-5,7.8-6.9c-1.1-10.5,2-19.5,7.6-26.4c4.1-5.1,9.6-9,15.7-11.4s12.8-3.2,19.3-2.3
										C100.1,55.2,108.6,59.7,114.9,68.1 M130.9,75.3c-4.7-2.5-10.4-3.4-16.5-1.7l-1.8,0.5l-1.1-1.6c-5.5-8-13.1-12.3-21-13.4
										c-5.6-0.8-11.4-0.1-16.6,2c-5.2,2-10,5.4-13.5,9.8c-5,6.2-7.6,14.4-6.2,24.1l0.3,1.9l-1.7,0.9c-3.2,1.7-5.7,3.8-7.6,6.3
										c-2.6,3.4-3.9,7.4-4.2,11.5s0.6,8.2,2.5,11.9c1.3,2.5,3.1,4.8,5.4,6.7h99c1.1-1.3,2-2.9,2.7-4.5c1-2.7,1.3-5.8,0.8-8.6
										c-0.5-2.8-1.8-5.5-4-7.7c-1.4-1.4-3.2-2.6-5.4-3.4l-2.8-1.1l1.4-2.6c2.9-5.5,3.3-11.3,1.9-16.4c-0.8-3.1-2.3-5.9-4.3-8.4
										C136.2,78.9,133.8,76.8,130.9,75.3"/>
								</defs>
								<clipPath id="SVGID_8_">
									<use xlink:href="#SVGID_7_"  overflow="visible"/>
								</clipPath>
								<g id="XMLID_80_" clip-path="url(#SVGID_8_)">
									<g id="XMLID_84_">
										<defs>
											<rect id="SVGID_9_" x="35" y="53" width="122" height="87"/>
										</defs>
										<clipPath id="SVGID_10_">
											<use xlink:href="#SVGID_9_"  overflow="visible"/>
										</clipPath>
										<rect id="XMLID_86_" x="30.7" y="48.6" clip-path="url(#SVGID_10_)" fill="#FFFFFF" width="131.3" height="95.9"/>
									</g>
								</g>
							</g>
						</g>
					</g>
				</g>
			</g>
		</g>
	</g>
</g>
<g>
</g>
<g>
</g>
<g>
</g>
<g>
</g>
<g>
</g>
<g>
</g>
<g>
</g>
<g>
</g>
<g>
</g>
<g>
</g>
<g>
</g>
<g>
</g>
<g>
</g>
<g>
</g>
<g>
</g>
</svg>
