<?xml version="1.0" encoding="utf-8"?>
<!-- Generator: Adobe Illustrator 18.0.0, SVG Export Plug-In . SVG Version: 6.00 Build 0)  -->
<!DOCTYPE svg PUBLIC "-//W3C//DTD SVG 1.1//EN" "http://www.w3.org/Graphics/SVG/1.1/DTD/svg11.dtd">
<svg version="1.1" id="图层_1" xmlns="http://www.w3.org/2000/svg" xmlns:xlink="http://www.w3.org/1999/xlink" x="0px" y="0px"
	 width="98px" height="98px" viewBox="0 0 98 98" enable-background="new 0 0 98 98" xml:space="preserve">
<g>
	<g opacity="0.3">
		<path fill="none" stroke="#FFFFFF" stroke-width="2" stroke-miterlimit="10" d="M57.8,73.3l-9.1-9.1l15.5-15.5l9.1,9.1
			c2.5,2.5,2.8,6.2,0.7,8.4L66.1,74C64,76.1,60.2,75.8,57.8,73.3z"/>
		<line fill="none" stroke="#FFFFFF" stroke-width="2" stroke-miterlimit="10" x1="59.6" y1="52.6" x2="54.7" y2="47.6"/>
		<line fill="none" stroke="#FFFFFF" stroke-width="2" stroke-miterlimit="10" x1="52.6" y1="59.6" x2="47.6" y2="54.7"/>
		<line fill="none" stroke="#FFFFFF" stroke-width="2" stroke-miterlimit="10" x1="69.5" y1="69.5" x2="83.6" y2="83.6"/>
	</g>
	<g opacity="0.3">
		<path fill="none" stroke="#FFFFFF" stroke-width="2" stroke-miterlimit="10" d="M40.2,24.8l9.1,9.1L33.9,49.4l-9.1-9.1
			c-2.5-2.5-2.8-6.2-0.7-8.4l7.8-7.8C34,22,37.7,22.3,40.2,24.8z"/>
		<line fill="none" stroke="#FFFFFF" stroke-width="2" stroke-miterlimit="10" x1="28.5" y1="28.5" x2="14.4" y2="14.4"/>
	</g>
</g>
</svg>
