<?xml version="1.0" encoding="utf-8"?>
<!-- Generator: Adobe Illustrator 18.0.0, SVG Export Plug-In . SVG Version: 6.00 Build 0)  -->
<!DOCTYPE svg PUBLIC "-//W3C//DTD SVG 1.1//EN" "http://www.w3.org/Graphics/SVG/1.1/DTD/svg11.dtd">
<svg version="1.1" id="图层_1" xmlns="http://www.w3.org/2000/svg" xmlns:xlink="http://www.w3.org/1999/xlink" x="0px" y="0px"
	 width="50px" height="50px" viewBox="0 0 50 50" enable-background="new 0 0 50 50" xml:space="preserve">
<g id="Movies_Icon_Group_-_Inactive_1_">
	<path id="Movies_Icon_-_Inactive_1_" fill="#FF3912" d="M34.5,8.6c0,0,0,0.1,0,0.1c0,0.1,0,2.3,0,5.3L34.2,14
		c-5.1,1-10.1,1.9-15,3.1c0-2.7,0-4.6,0-4.6c0-0.9,0.2-1,0.4-1c2.9-0.7,13.9-2.9,14.8-3C34.4,8.6,34.5,8.6,34.5,8.6 M34.5,30.1
		c0,0.7,0,1.1,0,1.3l0,0.1c0,1.1-0.2,3.9-1.9,4.9c-0.5,0.3-1.2,0.5-1.9,0.5c-0.5,0-1-0.1-1.5-0.2c-1.3-0.4-1.8-1.6-1.8-2.5
		c0-0.4,0.1-1.8,1.7-2.3c0.2-0.1,0.7-0.1,1.2-0.2C31.5,31.3,33.3,31,34.5,30.1 M17.9,33.7v0.5l0,0.3c0,1.5,0,3.2-0.8,4.2
		c-0.8,1-2.2,1.7-3.5,1.7c-0.8,0-2.3-0.2-2.9-1.6c-0.5-1.2,0.1-2.9,1.1-3.5c0.6-0.3,1.4-0.4,2.3-0.5c1.1-0.1,2.3-0.2,3.5-0.9
		C17.7,33.9,17.8,33.8,17.9,33.7 M34.5,7.2c-0.1,0-0.2,0-0.3,0c-0.9,0.1-12.2,2.3-15,3c-1.1,0.3-1.4,1.2-1.4,2.3c0,0,0,14.2,0,18.5
		c0,0.3,0,0.6-0.1,0.9c-0.1,0.4-0.4,0.7-0.8,0.9c-1.8,1-3.9,0.4-5.7,1.4c-1.7,0.9-2.5,3.4-1.7,5.2c0.7,1.7,2.4,2.4,4.1,2.4
		c1.7,0,3.5-0.9,4.6-2.2c1.2-1.4,1.1-3.6,1.1-5.3c0-2.3,0-15.7,0-15.7c5-1.2,10.1-2.2,15.1-3.2c0,0,0,11.8,0,12.4
		c0,2.2-4.5,2.2-5.8,2.6c-3.6,1.2-3.5,6.3,0.1,7.4c0.6,0.2,1.3,0.3,1.9,0.3c0.9,0,1.8-0.2,2.6-0.6c2.1-1.1,2.6-3.9,2.6-6.1
		c0,0,0-22.4,0-22.7C35.9,7.6,35.4,7.2,34.5,7.2L34.5,7.2z"/>
</g>
</svg>
