<?xml version="1.0" encoding="utf-8"?>
<!-- Generator: Adobe Illustrator 18.0.0, SVG Export Plug-In . SVG Version: 6.00 Build 0)  -->
<!DOCTYPE svg PUBLIC "-//W3C//DTD SVG 1.1//EN" "http://www.w3.org/Graphics/SVG/1.1/DTD/svg11.dtd">
<svg version="1.1" id="图层_1" xmlns="http://www.w3.org/2000/svg" xmlns:xlink="http://www.w3.org/1999/xlink" x="0px" y="0px"
	 width="278.3px" height="103.2px" viewBox="0 0 278.3 103.2" enable-background="new 0 0 278.3 103.2" xml:space="preserve">
<line fill="none" stroke="#FFFFFF" stroke-width="2" stroke-miterlimit="10" x1="149.3" y1="8.8" x2="251.4" y2="8.8"/>
<path fill="none" stroke="#FFFFFF" stroke-width="2" stroke-miterlimit="10" d="M147.6,8.8L147.6,8.8c0-3.2,2.6-5.8,5.8-5.8h94
	c3.2,0,5.8,2.6,5.8,5.8l0,0h4.5c10.6,0,19.2,7.6,19.2,17v58.1c0,9.4-8.6,17-19.2,17H21.2c-10.6,0-19.2-7.6-19.2-17V25.8
	c0-9.4,8.6-17,19.2-17h125.3C146.5,8.8,147.6,8.8,147.6,8.8z"/>
<path opacity="0.3" fill="#FFFFFF" d="M147.6,8.8L147.6,8.8c0-3.2,2.6-5.8,5.8-5.8h94c3.2,0,5.8,2.6,5.8,5.8l0,0h4.5
	c10.6,0,19.2,7.6,19.2,17v58.1c0,9.4-8.6,17-19.2,17H21.2c-10.6,0-19.2-7.6-19.2-17V25.8c0-9.4,8.6-17,19.2-17h125.3H147.6z"/>
</svg>
