<?xml version="1.0" encoding="utf-8"?>
<!-- Generator: Adobe Illustrator 18.0.0, SVG Export Plug-In . SVG Version: 6.00 Build 0)  -->
<!DOCTYPE svg PUBLIC "-//W3C//DTD SVG 1.1//EN" "http://www.w3.org/Graphics/SVG/1.1/DTD/svg11.dtd">
<svg version="1.1" id="图层_1" xmlns="http://www.w3.org/2000/svg" xmlns:xlink="http://www.w3.org/1999/xlink" x="0px" y="0px"
	 width="500px" height="500px" viewBox="0 0 500 500" enable-background="new 0 0 500 500" xml:space="preserve">
<path opacity="0.8" fill="none" stroke="#9FE2C0" stroke-width="2" stroke-miterlimit="10" d="M219.8,330.8c0-16.6,13.4-30,30-30
	s30,13.4,30,30"/>
<path opacity="0.7" fill="none" stroke="#9FE2C0" stroke-width="2" stroke-miterlimit="10" d="M160,330.8c0-49.7,40.3-90,90-90
	s90,40.3,90,90"/>
<path opacity="0.6" fill="none" stroke="#9FE2C0" stroke-width="2" stroke-miterlimit="10" d="M100,330.8c0-82.8,67.2-150,150-150
	s150,67.2,150,150"/>
<path opacity="0.5" fill="none" stroke="#9FE2C0" stroke-width="2" stroke-miterlimit="10" d="M40,330.8c0-116,94-210,210-210
	s210,94,210,210"/>
<path opacity="0.4" fill="none" stroke="#9FE2C0" stroke-width="2" stroke-miterlimit="10" d="M-20,330.8c0-149.1,120.9-270,270-270
	s270,120.9,270,270"/>
<path opacity="0.3" fill="none" stroke="#9FE2C0" stroke-width="2" stroke-miterlimit="10" d="M-80,330.8c0-182.3,147.7-330,330-330
	s330,147.7,330,330"/>
<path opacity="0.3" fill="none" stroke="#9FE2C0" stroke-width="2" stroke-miterlimit="10" d="M-140,330.8
	c0-215.4,174.6-390,390-390s390,174.6,390,390"/>
</svg>
