<?xml version="1.0" encoding="utf-8"?>
<!-- Generator: Adobe Illustrator 18.0.0, SVG Export Plug-In . SVG Version: 6.00 Build 0)  -->
<!DOCTYPE svg PUBLIC "-//W3C//DTD SVG 1.1//EN" "http://www.w3.org/Graphics/SVG/1.1/DTD/svg11.dtd">
<svg version="1.1" id="图层_1" xmlns="http://www.w3.org/2000/svg" xmlns:xlink="http://www.w3.org/1999/xlink" x="0px" y="0px"
	 width="50px" height="50px" viewBox="0 0 50 50" enable-background="new 0 0 50 50" xml:space="preserve">
<g>
	<path fill="none" stroke="#FF9900" stroke-miterlimit="10" d="M33.1,43.8H16.9c-1.5,0-2.7-1.2-2.7-2.7V8.8c0-1.5,1.2-2.7,2.7-2.7
		h16.2c1.5,0,2.7,1.2,2.7,2.7v32.3C35.8,42.6,34.6,43.8,33.1,43.8z"/>
	<path fill="none" stroke="#FF9900" stroke-miterlimit="10" d="M33.6,38.8H16.4c-0.4,0-0.7-0.3-0.7-0.7V11.9c0-0.4,0.3-0.7,0.7-0.7
		h17.2c0.4,0,0.7,0.3,0.7,0.7v26.2C34.3,38.5,34,38.8,33.6,38.8z"/>
</g>
</svg>
