<?xml version="1.0" encoding="utf-8"?>
<!-- Generator: Adobe Illustrator 18.0.0, SVG Export Plug-In . SVG Version: 6.00 Build 0)  -->
<!DOCTYPE svg PUBLIC "-//W3C//DTD SVG 1.1//EN" "http://www.w3.org/Graphics/SVG/1.1/DTD/svg11.dtd">
<svg version="1.1" id="图层_1" xmlns="http://www.w3.org/2000/svg" xmlns:xlink="http://www.w3.org/1999/xlink" x="0px" y="0px"
	 width="512px" height="512px" viewBox="0 0 512 512" enable-background="new 0 0 512 512" xml:space="preserve">
<path fill="#84A4B2" d="M106.3,1.6c0.5,4.7,3.9,37.1-2.3,55.4c-1.4,4.1,2.2,8.1,6.4,7.1c17-4.2,48.3-16.2,63.6-49.4
	c2.1-4.6,8.8-4.1,10.2,0.8c5.8,21.1,12.3,59.6-6.6,87.3c-3.1,4.5,1.7,10.2,6.7,8C222.4,94,291.2,57.8,325.6,3.6
	c1-1.6,2.7-2.6,4.6-2.6h50.6c2,0,3.9,1.1,4.8,2.9c6.1,11.6,15.5,53.3,6.5,71S413.9,62,426.9,0.6c0.1-0.4,0.1-0.8,0.1-1.1l0,0
	c0-3-2.4-5.4-5.4-5.4H111.9c-2.8,0-5.1,2.1-5.4,4.8l-0.2,1.5C106.3,0.8,106.3,1.2,106.3,1.6z"/>
<path fill="none" stroke="#561E1A" stroke-width="5" stroke-miterlimit="10" d="M201.5,382c0,0,133.5,26,169.5-30"/>
</svg>
