<?xml version="1.0" encoding="utf-8"?>
<!-- Generator: Adobe Illustrator 18.0.0, SVG Export Plug-In . SVG Version: 6.00 Build 0)  -->
<!DOCTYPE svg PUBLIC "-//W3C//DTD SVG 1.1//EN" "http://www.w3.org/Graphics/SVG/1.1/DTD/svg11.dtd">
<svg version="1.1" id="图层_1" xmlns="http://www.w3.org/2000/svg" xmlns:xlink="http://www.w3.org/1999/xlink" x="0px" y="0px"
	 width="512px" height="512px" viewBox="0 0 512 512" enable-background="new 0 0 512 512" xml:space="preserve">
<path fill="#0D2675" d="M162.5,293.7h-1.4c-3.6,0-6.5-2.9-6.5-6.5v-62.6c0-3.6,2.9-6.5,6.5-6.5h1.4c3.6,0,6.5,2.9,6.5,6.5v62.6
	C169,290.8,166.1,293.7,162.5,293.7z"/>
<path fill="#0D2675" d="M349.5,293.7h-1.4c-3.6,0-6.5-2.9-6.5-6.5v-62.6c0-3.6,2.9-6.5,6.5-6.5h1.4c3.6,0,6.5,2.9,6.5,6.5v62.6
	C356,290.8,353.1,293.7,349.5,293.7z"/>
</svg>
