<?xml version="1.0" encoding="utf-8"?>
<!-- Generator: Adobe Illustrator 18.0.0, SVG Export Plug-In . SVG Version: 6.00 Build 0)  -->
<!DOCTYPE svg PUBLIC "-//W3C//DTD SVG 1.1//EN" "http://www.w3.org/Graphics/SVG/1.1/DTD/svg11.dtd">
<svg version="1.1" id="图层_1" xmlns="http://www.w3.org/2000/svg" xmlns:xlink="http://www.w3.org/1999/xlink" x="0px" y="0px"
	 width="144px" height="144px" viewBox="0 0 144 144" enable-background="new 0 0 144 144" xml:space="preserve">
<path fill="none" stroke="#FFFFFF" stroke-width="2.9435" stroke-miterlimit="10" d="M-53.5,83.1h-83.7c-4.4,0-8-3.6-8-8V17
	c0-4.4,3.6-8,8-8h83.7c4.4,0,8,3.6,8,8v58.2C-45.5,79.5-49.1,83.1-53.5,83.1z"/>
<circle fill="none" stroke="#FFFFFF" stroke-width="2" stroke-miterlimit="10" cx="-84.2" cy="108.3" r="10.8"/>
<circle fill="none" stroke="#FFFFFF" stroke-width="2.9435" stroke-miterlimit="10" cx="71.8" cy="72.3" r="48"/>
<ellipse transform="matrix(0.9749 0.2227 -0.2227 0.9749 17.9084 -14.177)" fill="none" stroke="#FFFFFF" stroke-width="2" stroke-miterlimit="10" cx="71.8" cy="72.3" rx="22.2" ry="44.5"/>
<ellipse transform="matrix(-0.2227 0.9749 -0.9749 -0.2227 158.2896 18.4084)" fill="none" stroke="#FFFFFF" stroke-width="2" stroke-miterlimit="10" cx="71.8" cy="72.3" rx="22.9" ry="45.7"/>
</svg>
