<?xml version="1.0" encoding="utf-8"?>
<!-- Generator: Adobe Illustrator 18.0.0, SVG Export Plug-In . SVG Version: 6.00 Build 0)  -->
<!DOCTYPE svg PUBLIC "-//W3C//DTD SVG 1.1//EN" "http://www.w3.org/Graphics/SVG/1.1/DTD/svg11.dtd">
<svg version="1.1" id="图层_1" xmlns="http://www.w3.org/2000/svg" xmlns:xlink="http://www.w3.org/1999/xlink" x="0px" y="0px"
	 width="100px" height="100px" viewBox="0 0 100 100" enable-background="new 0 0 100 100" xml:space="preserve">
<g id="Layer_1">
	<g>
		<circle fill="#FFFFFF" cx="50" cy="50.6" r="0.8"/>
		<path fill="#FFFFFF" d="M54.2,47.5h-2.2l-0.6-1.1h-2.8l-0.6,1.1h-2.2c-0.5,0-0.8,0.4-0.8,0.8v4.4c0,0.4,0.4,0.8,0.8,0.8h8.3
			c0.5,0,0.8-0.4,0.8-0.8v-4.4C55,47.9,54.6,47.5,54.2,47.5z M50,52.5c-1.1,0-1.9-0.9-1.9-1.9c0-1.1,0.9-1.9,1.9-1.9
			s1.9,0.9,1.9,1.9C51.9,51.6,51.1,52.5,50,52.5z"/>
	</g>
</g>
<line opacity="0.2" fill="#FFFFFF" stroke="#FFFFFF" stroke-miterlimit="10" x1="50" y1="9" x2="50" y2="91"/>
<line opacity="0.2" fill="#FFFFFF" stroke="#FFFFFF" stroke-miterlimit="10" x1="91" y1="50" x2="9" y2="50"/>
<g>
	<path fill="#60CDFC" d="M2.8,47h0.5v3.4c0,0.7,0.1,1.2,0.4,1.5C4,52.3,4.4,52.5,5,52.5c0.3,0,0.6,0,0.8-0.1C6,52.3,6.2,52.2,6.3,52
		c0.1-0.2,0.2-0.4,0.3-0.6s0.1-0.5,0.1-0.9V47h0.5v3.6c0,0.8-0.2,1.3-0.6,1.7S5.7,53,5,53c-0.8,0-1.3-0.2-1.7-0.6s-0.6-1-0.6-1.7V47
		z"/>
</g>
<g>
	<path fill="#60CDFC" d="M92.8,47h0.5v3.4c0,0.7,0.1,1.2,0.4,1.5c0.3,0.3,0.7,0.5,1.3,0.5c0.3,0,0.6,0,0.8-0.1
		c0.2-0.1,0.4-0.2,0.5-0.4c0.1-0.2,0.2-0.4,0.3-0.6c0.1-0.3,0.1-0.5,0.1-0.9V47h0.5v3.6c0,0.8-0.2,1.3-0.6,1.7S95.7,53,95,53
		c-0.8,0-1.3-0.2-1.7-0.6s-0.6-1-0.6-1.7V47z"/>
</g>
<g>
	<g opacity="0.6">
		<path fill="#61FF8E" d="M47.7,2.2h0.6L50,7.3l1.7-5.1h0.6l-2,5.8h-0.6L47.7,2.2z"/>
	</g>
	<g opacity="0.6">
		<path fill="#61FF8E" d="M47.7,92.2h0.6l1.7,5.1l1.7-5.1h0.6l-2,5.8h-0.6L47.7,92.2z"/>
	</g>
</g>
</svg>
