<?xml version="1.0" encoding="utf-8"?>
<!-- Generator: Adobe Illustrator 18.0.0, SVG Export Plug-In . SVG Version: 6.00 Build 0)  -->
<!DOCTYPE svg PUBLIC "-//W3C//DTD SVG 1.1//EN" "http://www.w3.org/Graphics/SVG/1.1/DTD/svg11.dtd">
<svg version="1.1" id="图层_1" xmlns="http://www.w3.org/2000/svg" xmlns:xlink="http://www.w3.org/1999/xlink" x="0px" y="0px"
	 width="144px" height="144px" viewBox="0 0 144 144" enable-background="new 0 0 144 144" xml:space="preserve">
<path fill="#FFFFFF" d="M71.8,139.3c-36.9,0-67-30.1-67-67c0-36.9,30.1-67,67-67c36.9,0,67,30.1,67,67
	C138.8,109.2,108.7,139.3,71.8,139.3z M71.8,15.3c-31.4,0-57,25.6-57,57s25.6,57,57,57s57-25.6,57-57S103.2,15.3,71.8,15.3z"/>
<path fill="#FFFFFF" d="M62.3,133.7c-1.5,0-3-0.2-4.4-0.5c-9.4-2.1-16.4-10.9-19.8-24.6c-3-12.5-2.7-28.1,0.8-43.8
	c7.1-31.2,24.9-53.9,42.3-53.9c1.5,0,3,0.2,4.4,0.5c18.4,4.2,26.7,34.3,18.9,68.4C97.5,111,79.7,133.7,62.3,133.7z M81.3,20.9
	c-5.4,0-11.9,4.5-17.8,12.2C57,41.8,51.7,53.8,48.7,67c-3.2,14.2-3.6,28.1-0.9,39.2c2.4,9.7,6.8,16,12.3,17.2
	c0.7,0.2,1.4,0.2,2.2,0.2c5.4,0,11.9-4.5,17.8-12.2c6.5-8.7,11.8-20.7,14.8-33.9c3.2-14.2,3.6-28.1,0.9-39.2
	c-2.4-9.7-6.8-16-12.3-17.2C82.8,21,82.1,20.9,81.3,20.9z"/>
<path fill="#FFFFFF" d="M89.7,109c-8.3,0-16.9-1-25.5-3c-35-8-59-29.1-54.7-48C12.6,44.2,29.6,35.6,54,35.6c8.3,0,16.9,1,25.5,3
	c35,8,59,29.1,54.7,48C131.1,100.4,114,109,89.7,109z M54,45.6c-18.8,0-32.8,5.9-34.8,14.7C17.8,66,21.7,73,29.6,79.5
	c9,7.4,22.1,13.4,36.7,16.7c7.9,1.8,15.8,2.7,23.3,2.7c18.8,0,32.8-5.9,34.8-14.7c1.3-5.7-2.5-12.7-10.5-19.3
	c-9-7.4-22.1-13.4-36.7-16.7C69.3,46.5,61.5,45.6,54,45.6z"/>
</svg>
