<?xml version="1.0" encoding="utf-8"?>
<!-- Generator: Adobe Illustrator 18.0.0, SVG Export Plug-In . SVG Version: 6.00 Build 0)  -->
<!DOCTYPE svg PUBLIC "-//W3C//DTD SVG 1.1//EN" "http://www.w3.org/Graphics/SVG/1.1/DTD/svg11.dtd">
<svg version="1.1" id="图层_1" xmlns="http://www.w3.org/2000/svg" xmlns:xlink="http://www.w3.org/1999/xlink" x="0px" y="0px"
	 width="50px" height="50px" viewBox="0 0 50 50" enable-background="new 0 0 50 50" xml:space="preserve">
<path fill="#FFC627" d="M25.5,42.6c-9.6,0-17.5-7.8-17.5-17.5c0-9.6,7.8-17.5,17.5-17.5S43,15.5,43,25.1
	C43,34.7,35.2,42.6,25.5,42.6z M25.5,8.6C16.5,8.6,9.1,16,9.1,25.1c0,9.1,7.4,16.5,16.5,16.5S42,34.2,42,25.1
	C42,16,34.6,8.6,25.5,8.6z"/>
<path fill="#FFC627" d="M32.4,40.6c-2.3-5-3-8.9-3.1-10.8c-0.1-1.6,0-2.7,0-3.4l-3.2,0l-0.1-0.4c-0.3-2.4,0.5-6,2.4-10.8
	c1.4-3.5,2.9-6.2,2.9-6.2L31.4,9l0.4,0.1l0.5,0.2l-0.1,0.1c-0.1,0.1-5.7,10.6-5.3,16.1l3.5,0l-0.1,0.5c0,0.1-0.3,1.4-0.1,3.7
	c0.1,1.4,0.7,5.3,3,10.4l0.1,0.1l-0.4,0.2l-0.4,0.2L32.4,40.6z"/>
<rect x="33.7" y="19.9" transform="matrix(-0.1009 0.9949 -0.9949 -0.1009 58.6824 -12.4078)" fill="#FFC627" width="2.5" height="0.9"/>
<path fill="#FFC627" d="M31.4,34.7c-0.5,0-0.8-0.1-0.9-0.1l-0.1,0l0.2-0.9l0.1,0c0,0,0.3,0.1,0.7,0.1c0.3,0,0.7,0,1-0.1
	c1.2-0.2,2.1-0.9,2.7-1.9l0.1-0.1l0.8,0.4l-0.1,0.1c-0.7,1.3-1.8,2.1-3.3,2.3C32.2,34.7,31.8,34.7,31.4,34.7z"/>
<path fill="#FFC627" d="M18.3,40.6l-0.2-0.1l0.1-0.1c1.4-1.6,2.4-5.8,2.7-11.6c0.3-5.2,0-10.5-0.4-13.2c-0.3-2.2-3-5.3-3-5.3
	l-0.1-0.1l0.4-0.2l0.4-0.2l0.1,0.1c0.1,0.1,0.7,0.8,1.4,1.8c1,1.5,1.6,2.8,1.7,3.8c0.4,2.8,0.7,8.1,0.4,13.4
	c-0.3,6.4-1.2,10.3-2.8,12l-0.1,0.1L18.3,40.6z"/>
<path fill="#FFC627" stroke="#FFFFFF" stroke-width="13" stroke-miterlimit="10" d="M13.7,12.7"/>
<path fill="#FFC627" stroke="#FFFFFF" stroke-width="13" stroke-miterlimit="10" d="M20.4,14"/>
<path fill="#FFC627" stroke="#FFFFFF" stroke-width="13" stroke-miterlimit="10" d="M21,29.4"/>
<path fill="#FFC627" stroke="#FFFFFF" stroke-width="13" stroke-miterlimit="10" d="M8.6,25.6"/>
<path fill="#FFC627" d="M20.9,34.5C20.9,34.5,20.8,34.5,20.9,34.5l-0.4,0c-0.2,0-0.4,0-0.6,0c-0.9,0-1.6-0.1-2.2-0.2
	c-1.4-0.4-2.3-1.1-2.8-2.2l-0.1-0.1l0.8-0.3l0.1,0.1c0.5,1.3,1.9,1.9,4.2,1.9c0.2,0,0.4,0,0.6,0l0.3,0c0.1,0,0.2,0,0.3,0l0.1,0
	L21,34.5L20.9,34.5z"/>
<rect x="15.8" y="19.8" transform="matrix(-0.1215 0.9926 -0.9926 -0.1215 38.9711 5.8868)" fill="#FFC627" width="2.2" height="0.9"/>
<rect x="16.5" y="19.1" transform="matrix(-0.1212 0.9926 -0.9926 -0.1212 38.9759 5.8483)" fill="#FFC627" width="0.9" height="2.2"/>
</svg>
