<?xml version="1.0" encoding="utf-8"?>
<!-- Generator: Adobe Illustrator 18.0.0, SVG Export Plug-In . SVG Version: 6.00 Build 0)  -->
<!DOCTYPE svg PUBLIC "-//W3C//DTD SVG 1.1//EN" "http://www.w3.org/Graphics/SVG/1.1/DTD/svg11.dtd">
<svg version="1.1" id="图层_1" xmlns="http://www.w3.org/2000/svg" xmlns:xlink="http://www.w3.org/1999/xlink" x="0px" y="0px"
	 width="50px" height="50px" viewBox="0 0 50 50" enable-background="new 0 0 50 50" xml:space="preserve">
<path fill="#FF9900" d="M25,14.5L25,14.5c-1.9,0-3.4-1.5-3.4-3.4c0-1.9,1.5-3.4,3.4-3.4c1.9,0,3.4,1.5,3.4,3.4c0,0.9-0.3,1.8-1,2.4
	C26.8,14.2,25.9,14.5,25,14.5z M25,8.8c-1.3,0-2.4,1.1-2.4,2.4c0,1.3,1.1,2.4,2.4,2.4c0.6,0,1.2-0.2,1.7-0.7c0.4-0.4,0.7-1,0.7-1.7
	C27.4,9.9,26.3,8.8,25,8.8z"/>
<path fill="#FF9900" d="M25,44.7l-0.4-0.6c-1.3-1.9-3-2.6-5.1-3.3c-2.8-1-6-2.2-8.2-7.2l-1.6,1.3l-0.3-0.9C8.7,31.5,7.9,29,9,25.7
	l0.4-1.1l0.6,1c1.2,2.2,3.1,3.6,6.1,4.7l1.1,0.4L14.4,32c1.7,2.4,3.4,3.8,4.9,3.8c2,0,3.5-2.4,3.6-5.6l0-9.7l-5.8,0
	c-0.4,0-0.7-0.3-0.7-0.7v-2.3c0-0.4,0.3-0.7,0.7-0.7h5.7l0-0.6c-1.9-0.9-3.2-2.8-3.2-5c0-3,2.5-5.5,5.5-5.5c3,0,5.5,2.5,5.5,5.5
	c0,2.2-1.3,4.1-3.2,5l0,0.6H33c0.4,0,0.7,0.3,0.7,0.7v2.3c0,0.4-0.3,0.7-0.7,0.7l-5.7,0v9.6c0.1,3.4,1.5,5.6,3.6,5.6h0
	c1.7,0,3.6-1.5,5.1-4.1l-2.1-1.4L35,30c2-0.5,3.4-2.1,4.7-3.6c0.3-0.3,0.5-0.6,0.8-0.9l0.7-0.7l0.2,1c0.5,2.5,0.2,5.5-0.7,8.3
	l-0.2,0.7l-1.7-1.4c-1.6,4.7-5,6.1-8,7.3c-2.1,0.8-4,1.6-5.3,3.4L25,44.7z M11.8,31.9l0.2,0.6c2,5.2,4.9,6.2,7.8,7.3
	c1.8,0.7,3.7,1.4,5.2,3.2c1.4-1.6,3.4-2.4,5.3-3.2c3.1-1.2,6.2-2.5,7.6-7.4l0.2-0.7l1.7,1.4c0.6-2.1,0.8-4.2,0.6-6.1
	c0,0,0,0.1-0.1,0.1c-1.1,1.3-2.4,2.8-4.2,3.5l1.1,0.7L37,31.7c-1.7,3.2-4,5-6.2,5c0,0,0,0,0,0c-2.7,0-4.5-2.6-4.6-6.5V19.5l6.4,0
	v-1.8h-6.5l0-2.3l0.3-0.1c1.7-0.7,2.9-2.3,2.9-4.2c0-2.5-2-4.5-4.5-4.5s-4.5,2-4.5,4.5c0,1.9,1.1,3.5,2.8,4.2l0.3,0.1l0.1,2.3h-6.5
	v1.8l6.5,0l0,10.7c0,3.8-2,6.6-4.6,6.6c-1.4,0-3.6-0.8-6.1-4.7l-0.3-0.5l1.7-0.8c-2.2-0.9-3.8-2.1-4.9-3.7c-0.5,2.3,0,4.2,0.6,6
	L11.8,31.9z"/>
</svg>
