<?xml version="1.0" encoding="utf-8"?>
<!-- Generator: Adobe Illustrator 18.0.0, SVG Export Plug-In . SVG Version: 6.00 Build 0)  -->
<!DOCTYPE svg PUBLIC "-//W3C//DTD SVG 1.1//EN" "http://www.w3.org/Graphics/SVG/1.1/DTD/svg11.dtd">
<svg version="1.1" id="图层_1" xmlns="http://www.w3.org/2000/svg" xmlns:xlink="http://www.w3.org/1999/xlink" x="0px" y="0px"
	 width="159px" height="206.5px" viewBox="0 0 159 206.5" enable-background="new 0 0 159 206.5" xml:space="preserve">
<g>
	<g>
		<path fill="#FFFFFF" stroke="#0099FF" stroke-width="2" stroke-miterlimit="10" d="M130.1,163.1c0,6.1-3.4,11-7.6,11l0,0
			c-4.2,0-7.6-4.9-7.6-11v-43V66.6c0-6.1,3.4-11,7.6-11l0,0c4.2,0,7.6,4.9,7.6,11V163.1z"/>
		<path fill="#FFFFFF" stroke="#0099FF" stroke-width="2" stroke-miterlimit="10" d="M146.4,53.4v120.8h8v17h-46v-17h33.5v-2.2V55.6
			h-1.4h-29.3c-1.2,0-2.2-1-2.2-2.2l0,0c0-1.2,1-2.3,2.2-2.3h33C145.4,51.1,146.4,52.1,146.4,53.4L146.4,53.4"/>
		<ellipse fill="#FFFFFF" stroke="#0099FF" stroke-width="2" stroke-miterlimit="10" cx="144.9" cy="192" rx="10.1" ry="10.2"/>
	</g>
	<linearGradient id="SVGID_1_" gradientUnits="userSpaceOnUse" x1="7.667404e-08" y1="79.3335" x2="113.9058" y2="79.3335">
		<stop  offset="0" style="stop-color:#FFFFFF;stop-opacity:0"/>
		<stop  offset="1" style="stop-color:#FFFFFF;stop-opacity:0.7"/>
	</linearGradient>
	<polygon fill="url(#SVGID_1_)" points="113.9,80 113.9,88.7 0,158.7 0,0 	"/>
</g>
</svg>
